# xmcd
#
# Track frame offsets: 
#        150
#        12932
#        26082
#        38772
#        53776
#        65829
#        75408
#        87169
#        100361
#        118321
#        128435
#        139990
#        151463
#        162790
#
# Disc length: 2348 seconds
#
# Revision: 7
# Processed by: cddbd v1.5.2PL0 Copyright (c) Steve Scherf et al.
# Submitted via: ExactAudioCopy v1.0b3
#
DISCID=b4092a0e
DTITLE=Various Artist - The best of country legends
DYEAR=2003
DGENRE=Country
TTITLE0=Johnny Cash - I walk the line
TTITLE1=Dolly Parton - I will always love you
TTITLE2=Hank Snow - I'm movin' on
TTITLE3=Alabama - Love in the first degree
TTITLE4=Restless Heart - You can depend on me
TTITLE5=Dave Dudley - Six days on the road
TTITLE6=Charlie Rich - The most beautiful girl
TTITLE7=Don Williams - One good well
TTITLE8=Pam Tillis - May be it was Memphis
TTITLE9=Floyd Cramer - Flip, Flop and Bop
TTITLE10=Eddy Arnold - Bouquet of roses
TTITLE11=Patsy Cline - Walking after midnight
TTITLE12=Willie Nelson - On the road again
TTITLE13=Lynn Anderson - Top of the world
EXTD=YEAR: 2003
EXTT0=
EXTT1=
EXTT2=
EXTT3=
EXTT4=
EXTT5=
EXTT6=
EXTT7=
EXTT8=
EXTT9=
EXTT10=
EXTT11=
EXTT12=
EXTT13=
PLAYORDER=
